# xmcd
#
# Track frame offsets: 
#        150
#        16565
#        35513
#        43846
#        61918
#        78581
#        104807
#        120399
#        142898
#        161358
#        179253
#        193319
#
# Disc length: 2972 seconds
#
# Revision: 1
# Processed by: cddbd v1.5.2PL0 Copyright (c) Steve Scherf et al.
# Submitted via: ExactAudioCopy v1.0b1
#
DISCID=9b0b9a0c
DTITLE=Whiskey river - Countrybluesrock&roll
DYEAR=2012
DGENRE=Country
TTITLE0=Piosenka o butach
TTITLE1=Na autostradzie
TTITLE2=Kiedy idę znowu
TTITLE3=Bądź wierny
TTITLE4=Dziwny gość
TTITLE5=Niebo zza krat
TTITLE6=Nie płacz mała
TTITLE7=O późnym wstawaniu
TTITLE8=Stara knajpa honky-tonk
TTITLE9=Blues we dwoje
TTITLE10=Złotowłosa
TTITLE11=Wróć panie na Ziemię
EXTD=
EXTT0=
EXTT1=
EXTT2=
EXTT3=
EXTT4=
EXTT5=
EXTT6=
EXTT7=
EXTT8=
EXTT9=
EXTT10=
EXTT11=
PLAYORDER=
